<?xml version="1.0" encoding="UTF-8" standalone="no"?>
<!-- Created with Inkscape (http://www.inkscape.org/) -->

<svg
   width="111.49744mm"
   height="107.08936mm"
   viewBox="0 0 111.49744 107.08936"
   version="1.1"
   id="svg5"
   sodipodi:docname="logo.svg"
   inkscape:version="1.1 (c68e22c387, 2021-05-23)"
   xmlns:inkscape="http://www.inkscape.org/namespaces/inkscape"
   xmlns:sodipodi="http://sodipodi.sourceforge.net/DTD/sodipodi-0.dtd"
   xmlns="http://www.w3.org/2000/svg"
   xmlns:svg="http://www.w3.org/2000/svg">
  <sodipodi:namedview
     id="namedview7"
     pagecolor="#ffffff"
     bordercolor="#666666"
     borderopacity="1.0"
     inkscape:pageshadow="2"
     inkscape:pageopacity="0.0"
     inkscape:pagecheckerboard="0"
     inkscape:document-units="mm"
     showgrid="false"
     inkscape:zoom="0.62765204"
     inkscape:cx="270.05409"
     inkscape:cy="198.35831"
     inkscape:window-width="1920"
     inkscape:window-height="1009"
     inkscape:window-x="-8"
     inkscape:window-y="-8"
     inkscape:window-maximized="1"
     inkscape:current-layer="layer1"
     fit-margin-top="0"
     fit-margin-left="0"
     fit-margin-right="0"
     fit-margin-bottom="0" />
  <defs
     id="defs2" />
  <g
     inkscape:label="Capa 1"
     inkscape:groupmode="layer"
     id="layer1"
     transform="translate(-13.126487,-5.2464397)">
    <path
       id="path824"
       style="fill:#4e7e99;fill-opacity:1;stroke:#000000;stroke-width:0;stroke-linecap:round;stroke-linejoin:round;stroke-miterlimit:4;stroke-dasharray:none;stroke-opacity:1"
       d="m 75.758977,80.105508 -17.483297,0.02248 -8.95737,0.253493 -5.732447,0.207295 -0.905659,0.157975 c -0.501568,0.08759 -1.02827,0.24991 -1.180704,0.363694 l -0.275353,0.205423 -0.05686,7.585291 0.08241,-0.01219 c 0.04524,-0.0068 0.349432,-0.07779 0.67589,-0.158272 0.326458,-0.08049 1.200807,-0.195303 1.942767,-0.255074 l 1.348975,-0.108632 4.856437,-0.223529 7.122625,-0.173889 c 5.206417,-0.127174 9.097405,-0.156525 14.461604,-0.108951 l 7.338353,0.06522 9.712869,0.323737 4.10124,0.215727 0.647494,0.10864 c 0.356135,0.05987 0.814231,0.15708 1.018053,0.216038 0.203808,0.05899 0.382438,0.09557 0.396788,0.08117 l 0.02594,-0.02594 0.0514,-7.338972 -0.119258,-0.222594 c -0.141822,-0.265 -0.634843,-0.423215 -1.804769,-0.578798 l -0.863207,-0.11489 -4.15526,-0.156717 C 85.72243,80.346993 82.031639,80.23797 79.805786,80.190984 Z m -7.518488,1.679276 c 0.274047,0.002 0.547228,0.03678 0.800461,0.107077 0.390569,0.108475 0.404601,0.129268 0.404601,0.59504 0,0.474675 -0.0048,0.481225 -0.296895,0.399597 -0.163229,-0.04562 -0.574706,-0.08308 -0.914409,-0.08308 -0.792557,0 -1.062963,0.237663 -1.136063,0.998391 -0.09586,0.997795 0.438043,1.511398 1.458247,1.402665 0.28125,-0.02996 0.599352,-0.09095 0.706798,-0.135491 0.175109,-0.07261 0.191744,-0.02709 0.161711,0.441127 -0.0389,0.607083 -0.147679,0.667486 -1.22066,0.677456 -0.356145,0.0029 -0.834979,-0.0609 -1.064259,-0.142676 -0.514332,-0.18335 -1.00812,-0.641602 -1.210679,-1.12326 -0.334537,-0.795524 -0.09202,-2.019497 0.510125,-2.573073 0.394314,-0.362552 1.10068,-0.569203 1.801022,-0.563816 z m -5.093697,0.02718 c 0.394295,-6.77e-4 0.813188,0.04668 1.042093,0.13455 0.137479,0.05273 0.342036,0.897361 0.24163,0.997767 -0.02027,0.02027 -0.223583,-0.01499 -0.45174,-0.07837 -0.749383,-0.208093 -1.440131,-0.128125 -1.440131,0.166715 0,0.155507 0.301197,0.312446 1.223165,0.637174 0.673364,0.237165 0.966697,0.668255 0.900041,1.323381 -0.07405,0.727774 -0.551617,1.11525 -1.529733,1.24127 -0.237423,0.03054 -0.667102,0.01518 -0.954988,-0.03438 -0.809096,-0.139276 -0.825741,-0.153567 -0.825741,-0.706798 0,-0.433058 0.02555,-0.490676 0.188874,-0.427076 0.532216,0.207257 1.339466,0.300267 1.595601,0.183563 0.359959,-0.164007 0.343823,-0.502981 -0.03054,-0.640921 -0.16322,-0.06013 -0.526953,-0.191159 -0.80826,-0.291276 -0.666401,-0.237174 -0.945624,-0.595261 -0.945624,-1.213168 0,-0.597469 0.387619,-1.031853 1.089231,-1.220986 0.178164,-0.04802 0.436401,-0.07098 0.706174,-0.07146 z m 7.701117,0.02027 2.64456,0.108013 0.329676,0.180757 c 0.408951,0.224199 0.587855,0.600389 0.587855,1.237842 0,0.413869 -0.05734,0.548688 -0.36308,0.854468 -0.363013,0.363012 -0.363061,0.36307 0.11926,1.082046 0.541504,0.807184 0.513448,0.902961 -0.263799,0.905976 -0.443451,0.002 -0.463956,-0.01479 -0.941878,-0.75363 -0.339453,-0.524743 -0.555363,-0.7555 -0.706797,-0.7555 -0.196394,0 -0.217918,0.06963 -0.217918,0.701495 0,0.701487 -2.21e-4,0.701496 -0.593781,0.701496 h -0.593474 z m 5.100258,0.05397 0.984646,0.0096 c 0.541475,0.0048 1.227335,0.04187 1.524115,0.08116 0.53115,0.0704 0.539467,0.07742 0.539467,0.449241 0,0.377738 2.4e-4,0.377488 -0.944067,0.408664 -0.944309,0.03121 -0.944376,0.0314 -0.944376,0.404907 0,0.373521 1.06e-4,0.373377 0.809508,0.373377 0.809413,0 0.809201,7.6e-5 0.809201,0.431762 0,0.431686 2.12e-4,0.431762 -0.809201,0.431762 -0.809402,0 -0.809508,-2.4e-4 -0.809508,0.431446 0,0.431685 -1.9e-5,0.431762 0.977472,0.431762 0.977473,0 0.97754,-5.7e-5 0.944376,0.458607 -0.02699,0.373367 -0.07348,0.459999 -0.249133,0.464226 l -0.215718,0.0058 -2.586816,-0.07241 -0.187933,-0.187941 z m -18.364608,0.02565 c 0.0337,9.6e-5 0.05465,0.0029 0.05964,0.0076 l 0.03621,0.03592 0.216034,3.11473 0.06771,0.566313 c 0.06761,0.566581 0.06761,0.566629 -0.529786,0.566629 -0.597412,0 -0.597469,1.64e-4 -0.661532,-0.674335 -0.03524,-0.370984 -0.07559,-0.941685 -0.08961,-1.268114 l -0.02526,-0.593474 -0.431762,0.726468 c -0.268417,0.45174 -0.503201,0.72713 -0.620635,0.728341 -0.103871,9.48e-4 -0.243869,0.01411 -0.311254,0.029 -0.06742,0.01479 -0.328456,-0.27296 -0.580046,-0.639681 -0.457436,-0.666766 -0.457541,-0.666852 -0.525109,-0.17389 -0.03717,0.271126 -0.06742,0.825942 -0.06742,1.233155 0,0.740375 7.7e-5,0.740509 -0.593782,0.740509 h -0.593789 l 0.138304,-4.15494 0.01749,-0.02343 c 0.0096,-0.01296 0.28224,-0.0536 0.605643,-0.09019 0.588037,-0.06666 0.588094,-0.06685 1.116392,0.809508 l 0.528231,0.876327 0.204797,-0.0681 0.452681,-0.805148 c 0.452768,-0.805149 0.452921,-0.805176 1.031786,-0.888486 0.238778,-0.03448 0.453959,-0.05494 0.555075,-0.05465 z m 22.761812,0.08212 h 0.414896 c 0.228194,0 0.932533,0.03179 1.565006,0.0706 1.149961,0.0703 1.149799,0.07021 1.149799,0.520114 0,0.449895 1.18e-4,0.449934 -0.917216,0.401786 -0.917314,-0.04812 -0.917208,-0.04822 -0.917208,0.343094 0,0.391249 5.7e-5,0.391183 0.7555,0.391183 0.755445,0 0.755186,6.6e-5 0.755186,0.431752 0,0.431686 0,0.431762 -0.743642,0.431762 -0.743657,0 -0.743494,-1.53e-4 -0.787963,0.380868 -0.0245,0.209562 -0.02161,0.40391 0.0066,0.431763 l 0.05061,0.05062 h 0.899418 c 0.899336,0 0.899099,1.25e-4 0.899099,0.485769 0,0.463649 -0.01334,0.484462 -0.296572,0.462353 l -0.296896,-0.02305 -2.535919,-0.06839 h -3.08e-4 z m 4.532695,0.216035 h 0.572554 c 0.572329,0 0.57235,-1.72e-4 1.046143,0.674334 0.260597,0.370975 0.658491,0.909665 0.884447,1.196937 0.410825,0.522342 0.410847,0.522274 0.410847,0.04275 0,-0.263721 0.03152,-0.780272 0.06993,-1.147924 0.06982,-0.668457 0.06993,-0.668322 0.620633,-0.636244 l 0.550693,0.03189 -0.06315,3.345749 -0.05895,0.404601 c -0.05788,0.397512 -0.06724,0.4046 -0.534471,0.4046 -0.475643,0 -0.475901,3.8e-5 -1.36676,-1.197253 l -0.890686,-1.197254 -0.06143,2.297107 -0.616889,-0.03218 c -0.616857,-0.03228 -0.616728,-0.03208 -0.589724,-0.490773 l 0.0269,-0.458914 z m -36.011188,0.0029 c 0.552913,-2.79e-4 1.120273,0.03352 1.35835,0.101784 1.13006,0.324096 1.731813,1.41078 1.42078,2.56589 -0.295926,1.098989 -1.083632,1.542622 -2.87872,1.62183 l -1.206299,0.05341 -0.06685,-1.390803 c -0.03678,-0.7648 -0.0923,-1.694922 -0.123006,-2.066704 -0.05378,-0.650534 -0.04533,-0.679905 0.22416,-0.782347 0.180201,-0.06838 0.718641,-0.102752 1.271545,-0.103031 z m 23.597551,0.551328 c -0.02391,2.31e-4 -0.04774,0.002 -0.07117,0.0048 -0.282902,0.03247 -0.303763,0.0681 -0.303763,0.520421 0,0.480276 0.0048,0.485903 0.39149,0.518242 0.25308,0.02113 0.453229,-0.0293 0.56663,-0.142675 0.0964,-0.09642 0.175139,-0.267765 0.175139,-0.380868 0,-0.258852 -0.399232,-0.522928 -0.758317,-0.51949 z m -23.739593,0.41678 v 1.187254 c 0,1.18714 -5.7e-5,1.186909 0.458607,1.182578 0.252263,-0.0029 0.594224,-0.07799 0.76019,-0.167955 0.165957,-0.08999 0.348289,-0.285331 0.404908,-0.434259 0.208648,-0.548793 0.125896,-1.113501 -0.212607,-1.451994 -0.265814,-0.265825 -0.401517,-0.315624 -0.863207,-0.315624 z" />
    <path
       style="fill:#4e7e99;fill-opacity:1;stroke:#000000;stroke-width:0;stroke-linecap:round;stroke-linejoin:round;stroke-miterlimit:4;stroke-dasharray:none;stroke-opacity:1"
       d="m 45.54103,78.180548 4.478718,-0.206622 -0.002,-0.06742 c -0.0039,-0.135172 -0.165986,-0.307928 -0.412161,-0.437638 -0.138574,-0.07299 -0.320685,-0.29727 -0.404696,-0.498341 l -0.15275,-0.365567 v -8.566101 l 0.431685,-0.410652 c 0.237424,-0.22586 0.431685,-0.461161 0.431685,-0.522899 v -0.112239 h -4.856465 v 0.124504 c 0,0.06848 0.195788,0.305242 0.435085,0.526155 l 0.435076,0.401662 -0.06079,9.222234 -0.431686,0.366922 c -0.356233,0.302783 -0.40339,0.38545 -0.269801,0.472956 0.08904,0.0583 0.210454,0.09861 0.269801,0.08951 l 0.107925,-0.01651"
       id="path844" />
    <path
       style="fill:#4e7e99;fill-opacity:1;stroke:#000000;stroke-width:0;stroke-linecap:round;stroke-linejoin:round;stroke-miterlimit:4;stroke-dasharray:none;stroke-opacity:1"
       d="m 104.83887,91.059459 -0.40441,-0.620547 c -0.22243,-0.341297 -0.65557,-0.990456 -0.96253,-1.442573 -0.30698,-0.452123 -0.85802,-1.19482 -1.22456,-1.650452 -0.59645,-0.741432 -0.65027,-0.847775 -0.51246,-1.012626 l 0.15396,-0.184207 0.76023,-0.86337 c 0.41812,-0.474848 1.08242,-1.274234 1.47624,-1.776406 l 0.71601,-0.913036 -0.17716,-0.177185 -8.508242,0.0607 -0.155753,6.991082 -0.181128,0.200137 c -0.09962,0.110082 -0.350128,0.246812 -0.556699,0.30384 l -0.375558,0.103709 -1.36197,-0.09834 c -0.749077,-0.05404 -2.066148,-0.148927 -2.926829,-0.210784 l -1.56484,-0.112438 -0.51263,-0.0491 c -0.512631,-0.0491 -0.512631,-0.0491 -0.512631,0.701244 v 0.750363 h 16.83096"
       id="path846" />
    <path
       style="fill:#4e7e99;fill-opacity:1;stroke:#000000;stroke-width:0;stroke-linecap:round;stroke-linejoin:round;stroke-miterlimit:4;stroke-dasharray:none;stroke-opacity:1"
       d="M 48.1851,91.059459 48.17434,90.54684 c -0.0058,-0.281952 -0.04235,-0.610524 -0.08097,-0.730168 l -0.07021,-0.217556 -1.888617,0.127703 c -1.03874,0.07021 -2.602195,0.182076 -3.474335,0.248531 L 41.07449,90.096179 40.699337,89.939424 C 40.493008,89.853181 40.272584,89.68626 40.20952,89.568411 l -0.114677,-0.214271 -0.05043,-1.440664 c -0.02776,-0.792364 -0.05292,-2.351239 -0.0559,-3.464173 l -0.0058,-2.023522 h -8.741598 v 0.284611 l 0.770091,0.963882 c 0.423542,0.530142 1.019388,1.230995 1.324101,1.557453 1.293989,1.386347 1.252267,1.1298 0.363733,2.236655 -0.43183,0.537941 -1.188494,1.566003 -1.681466,2.284571 l -0.896314,1.306506 h 17.063443"
       id="path848" />
    <path
       id="path850"
       style="fill:#4e7e99;fill-opacity:1;stroke:#000000;stroke-width:0;stroke-linecap:round;stroke-linejoin:round;stroke-miterlimit:4;stroke-dasharray:none;stroke-opacity:1"
       d="M 85.862091,66.777163 85.799909,66.878 c -0.03421,0.05542 0.08219,0.186011 0.258811,0.290337 0.534868,0.31596 0.589132,0.61662 0.289085,1.606223 l -0.26162,0.862573 -2.155985,6.367442 -0.239447,0.632189 c -0.197005,0.519634 -0.323565,0.682921 -0.709926,0.917214 -0.258553,0.156794 -0.471717,0.338426 -0.473599,0.403659 l -0.0043,0.118636 1.052082,0.06992 c 1.493417,0.0989 2.509083,0.08701 2.509083,-0.029 0,-0.05485 -0.145678,-0.245261 -0.323738,-0.423329 -0.377991,-0.377986 -0.388405,-0.499742 -0.118642,-1.365524 0.201761,-0.647519 0.201642,-0.647644 1.050522,-0.682758 0.466886,-0.0193 1.394839,-0.002 2.062023,0.03775 1.213036,0.0727 1.212917,0.07261 1.429827,0.774856 0.289537,0.937441 0.276196,1.093649 -0.128299,1.511004 -0.209286,0.21591 -0.304615,0.392672 -0.242583,0.448936 l 0.102096,0.09268 4.748737,0.268485 0.0809,0.04898 c 0.04456,0.0269 0.08091,-0.03438 0.08091,-0.136116 h 3.12e-4 c 0,-0.101676 -0.198289,-0.354618 -0.440496,-0.561941 -0.242226,-0.207324 -0.490406,-0.503268 -0.551654,-0.657785 l -0.11148,-0.280977 -3.429101,-9.780614 v -0.633745 z m 1.96337,2.945518 c 0.02475,0.0029 0.04981,0.03563 0.0837,0.09616 l 0.09059,0.162335 1.382069,4.122794 -0.156092,0.05993 c -0.08585,0.03265 -0.309891,0.04975 -0.497945,0.03746 -0.188065,-0.0123 -0.791183,-0.03851 -1.340231,-0.0581 l -0.998387,-0.03553 v -0.134254 l 1.211928,-3.904569 0.108636,-0.206046 c 0.05207,-0.09876 0.08392,-0.144078 0.115824,-0.140169 z" />
    <path
       style="fill:#a7c1d3;fill-opacity:1;stroke:#000000;stroke-width:0;stroke-linecap:round;stroke-linejoin:round;stroke-miterlimit:4;stroke-dasharray:none;stroke-opacity:1"
       d="m 68.851953,94.689551 0.647528,-0.35965 5.719807,-3.030443 1.187129,-0.627062 c 0.652917,-0.344879 1.494072,-0.804608 1.869225,-1.021615 0.682096,-0.39456 0.682096,-0.39456 0.173804,-0.464232 -0.279569,-0.03833 -1.004769,-0.06964 -1.611564,-0.06964 h -1.103254 l -7.682185,4.106933 -7.528524,-3.999012 -3.327424,0.0068 0.431677,0.327157 2.158426,1.142166 c 1.18713,0.628193 2.862602,1.519072 3.723265,1.979721 0.860672,0.460657 2.217284,1.182759 3.014701,1.604692 l 1.449841,0.767131 0.115005,-0.002 c 0.06329,-6.77e-4 0.406407,-0.163507 0.762543,-0.361301"
       id="path854" />
    <path
       id="path856"
       style="fill:#4e7e99;fill-opacity:1;stroke:#000000;stroke-width:0;stroke-linecap:round;stroke-linejoin:round;stroke-miterlimit:4;stroke-dasharray:none;stroke-opacity:1"
       d="m 57.088426,66.887673 -5.998117,0.140178 -0.05647,0.09143 c -0.03102,0.05023 0.116589,0.254434 0.328111,0.453919 l 0.384613,0.362764 v 8.985156 l -0.377746,0.418027 C 51.16107,77.5691 50.991061,77.78791 50.991061,77.825224 v 0.06772 l 1.376138,-0.02219 c 0.756798,-0.0123 1.825158,-0.03851 2.374212,-0.0581 l 0.998073,-0.03553 v -0.06493 c 0,-0.03563 -0.194021,-0.27565 -0.431445,-0.533224 -0.431689,-0.468328 -0.431765,-0.46825 -0.431765,-2.04204 v -1.573751 l 0.807319,0.06713 1.620899,2.930851 0.269734,0.395544 c 0.14839,0.21761 0.438284,0.476086 0.644359,0.574428 l 0.374941,0.178885 1.256571,0.05187 c 1.371326,0.05647 2.364838,-0.09848 2.364838,-0.3687 0,-0.085 -0.085,-0.18045 -0.188873,-0.212289 -0.805283,-0.246836 -1.087637,-0.476664 -1.665224,-1.35615 -0.324893,-0.49473 -0.727342,-1.133892 -0.894423,-1.420473 -0.16708,-0.286571 -0.45612,-0.682767 -0.642495,-0.88037 -0.338858,-0.359306 -0.338848,-0.359248 0.111143,-0.577867 0.656787,-0.319101 1.180771,-0.820447 1.461359,-1.397988 0.318871,-0.656315 0.346147,-1.886666 0.0584,-2.632391 -0.345647,-0.895748 -1.333925,-1.595294 -2.649247,-1.875333 z m -2.212184,1.508507 h 0.7121 c 0.430446,0 0.856541,0.06848 1.077369,0.173266 0.982111,0.466041 1.202334,2.226004 0.398051,3.181847 -0.375845,0.446659 -0.85248,0.637808 -1.590618,0.637808 h -0.596902 z" />
    <path
       style="fill:#4e7e99;fill-opacity:1;stroke:#000000;stroke-width:0;stroke-linecap:round;stroke-linejoin:round;stroke-miterlimit:4;stroke-dasharray:none;stroke-opacity:1"
       d="m 105.41835,79.758161 0.0647,-0.104657 0.26685,-1.338862 c 0.14677,-0.73638 0.30082,-1.630245 0.34236,-1.98639 l 0.0755,-0.647519 -0.797,0.825749 c -1.05478,1.092853 -1.45121,1.223455 -3.63392,1.197139 L 100.19502,77.68499 99.9872,77.556558 V 66.482544 l 0.21762,-0.27665 c 0.11968,-0.152155 0.38679,-0.381212 0.59356,-0.509001 0.20678,-0.127789 0.37595,-0.276957 0.37595,-0.331472 v -0.09911 l -5.234143,0.02555 -0.318062,0.0682 c -0.318054,0.0682 -0.318054,0.0682 0.24283,0.620337 l 0.560864,0.552098 v 10.901876 l -0.06917,0.345772 c -0.04808,0.240623 -0.19581,0.429602 -0.485652,0.621395 -0.229062,0.151597 -0.416482,0.354925 -0.416482,0.451855 v 0.176233 l 8.795555,0.720196 0.55182,0.05647 c 0.30602,0.03131 0.58063,0.0098 0.61651,-0.04822"
       id="path860" />
    <path
       style="fill:#4e7e99;fill-opacity:1;stroke:#000000;stroke-width:0;stroke-linecap:round;stroke-linejoin:round;stroke-miterlimit:4;stroke-dasharray:none;stroke-opacity:1"
       d="m 68.808713,77.569335 -0.08635,-0.145269 c -0.04745,-0.07991 -0.268418,-0.303455 -0.491003,-0.496813 L 67.826659,76.575688 V 68.50399 H 68.7007 c 1.014777,0 1.47981,0.174448 1.91332,0.717758 0.158618,0.198784 0.349095,0.361437 0.423291,0.361446 h 0.134905 v -2.590102 h -9.712882 l -9.48e-4,0.890349 c -7.45e-4,0.489688 -0.03131,1.072463 -0.0681,1.295047 -0.08923,0.540025 0.116437,0.53577 0.636608,-0.01316 0.454343,-0.479478 1.008899,-0.661349 2.016588,-0.661349 h 0.653703 v 8.119 L 64.2655,77.017593 c -0.237424,0.217024 -0.431686,0.429956 -0.431686,0.473167 v 0.07857 h 4.975092"
       id="path862" />
    <path
       style="fill:#375a6e;fill-opacity:1;stroke:#000000;stroke-width:0;stroke-linecap:round;stroke-linejoin:round;stroke-miterlimit:4;stroke-dasharray:none;stroke-opacity:1"
       d="m 91.232481,62.881093 c 0.124561,-0.116042 0.461131,-0.561692 0.747925,-0.990333 0.891739,-1.332772 1.633244,-2.623459 2.237389,-3.894447 l 0.581079,-1.222454 0.133398,-0.498801 c 0.07338,-0.274345 0.104251,-0.527971 0.06853,-0.563634 l -0.06488,-0.06483 -6.87417,-0.0029 -0.237004,0.0086 c -0.232669,0.0086 -0.234143,0.01835 -0.08112,0.533927 l 0.155962,0.525195 0.631326,1.498326 c 0.347234,0.824079 0.984671,2.23606 1.416529,3.137744 l 0.7852,1.639407 0.136588,0.05244 c 0.07509,0.02881 0.238502,-0.04255 0.363049,-0.158561"
       id="path864" />
    <path
       style="fill:#4e7e99;fill-opacity:1;stroke:#000000;stroke-width:0;stroke-linecap:round;stroke-linejoin:round;stroke-miterlimit:4;stroke-dasharray:none;stroke-opacity:1"
       d="m 78.618794,77.818544 c 0.148389,-0.02477 0.512631,-0.1229 0.809412,-0.217908 1.171079,-0.374913 1.966056,-1.152909 2.34315,-2.293121 l 0.233493,-0.706 0.121375,-6.976799 0.351719,-0.288838 c 0.193445,-0.15885 0.351279,-0.325248 0.350752,-0.369766 l -9.48e-4,-0.08097 H 79.26634 v 0.0705 c 0,0.0388 0.196835,0.252255 0.43742,0.474368 l 0.437419,0.403823 -0.06541,6.767614 -0.202166,0.406829 c -0.342871,0.689971 -0.73559,0.888226 -1.759472,0.888226 -0.726315,0 -0.936347,-0.03995 -1.18714,-0.225773 -0.44542,-0.330031 -0.758452,-0.842144 -0.890158,-1.456258 l -0.116022,-0.540976 v -5.838691 l 0.377726,-0.377718 c 0.207756,-0.207746 0.377727,-0.421437 0.377727,-0.474857 v -0.09713 h -4.748519 v 0.153077 c 0,0.08424 0.16515,0.255155 0.367008,0.379907 0.201858,0.124754 0.402661,0.310832 0.446216,0.413504 l 0.07914,0.186684 0.05072,6.367325 0.128076,0.539611 c 0.432809,1.823575 2.282269,3.001599 4.63632,2.953126 0.392557,-0.0076 0.835142,-0.03506 0.983533,-0.05984"
       id="path866" />
    <path
       style="fill:#375a6e;fill-opacity:1;stroke:#000000;stroke-width:0;stroke-linecap:round;stroke-linejoin:round;stroke-miterlimit:4;stroke-dasharray:none;stroke-opacity:1"
       d="m 45.594997,62.521624 v -0.0435 L 44.650689,61.96565 C 44.131315,61.683787 43.184307,61.176178 42.54623,60.837618 l -1.16015,-0.615574 v 0.197335 c 0,0.118568 0.183082,0.303301 0.458664,0.462824 0.754282,0.436592 3.750253,1.746324 3.750253,1.639474"
       id="path868" />
    <path
       style="fill:#4e7e99;fill-opacity:1;stroke:#000000;stroke-width:0;stroke-linecap:round;stroke-linejoin:round;stroke-miterlimit:4;stroke-dasharray:none;stroke-opacity:1"
       d="m 38.957853,79.006346 c 0.237433,-0.02074 0.534809,-0.0605 0.660839,-0.08845 0.163517,-0.03621 0.294052,-0.228934 0.455745,-0.672712 l 0.22659,-0.621921 3.430202,-9.820799 0.23994,-0.730704 c 0.198285,-0.603846 0.331943,-0.809932 0.769948,-1.18713 0.291506,-0.251034 0.530035,-0.517137 0.530064,-0.591331 l 4.9e-5,-0.134906 h -4.316836 l 0.0039,0.134906 c 0.002,0.07424 0.19792,0.268994 0.434815,0.432885 0.618649,0.428007 0.690893,0.701583 0.430851,1.631695 l -0.214806,0.768344 -2.233966,6.673182 -0.467347,-1.277134 -2.162557,-6.894519 v -0.338137 c 0,-0.345235 0.292314,-0.706788 0.683478,-0.845391 0.108811,-0.03851 0.177627,-0.130775 0.152933,-0.204941 l -0.04495,-0.134848 -6.349432,-0.05725 1.641818,1.568122 4.185916,12.464504 0.755444,-0.01795 c 0.415493,-0.0099 0.949697,-0.03487 1.18713,-0.05561"
       id="path870" />
    <path
       style="fill:#375a6e;fill-opacity:1;stroke:#000000;stroke-width:0;stroke-linecap:round;stroke-linejoin:round;stroke-miterlimit:4;stroke-dasharray:none;stroke-opacity:1"
       d="m 89.734652,62.684796 v -0.113929 l -0.790495,-1.754978 c -0.434773,-0.965237 -1.076115,-2.427461 -1.425188,-3.249368 l -0.634694,-1.494389 -1.088734,1.159085 -2.36106,2.693054 -0.156049,0.186462 c -0.142191,0.169876 -0.109195,0.206853 0.371117,0.415876 l 0.527176,0.229415 5.072278,1.892064 0.242825,0.0753 c 0.146032,0.04533 0.242824,0.02987 0.242824,-0.03861"
       id="path872" />
    <path
       style="fill:#375a6e;fill-opacity:1;stroke:#000000;stroke-width:0;stroke-linecap:round;stroke-linejoin:round;stroke-miterlimit:4;stroke-dasharray:none;stroke-opacity:1"
       d="m 92.594547,62.406447 2.303911,-1.187131 0.278005,-0.261626 c 0.25932,-0.244061 0.277103,-0.323807 0.264588,-1.18714 -0.0075,-0.509011 -0.04402,-1.265436 -0.08133,-1.680938 l -0.06799,-0.755444 -1.647662,3.237631 -1.000269,1.687026 -0.0493,0.147622"
       id="path874" />
    <path
       id="path876"
       style="fill:#a7c1d3;fill-opacity:1;stroke:#000000;stroke-width:0;stroke-linecap:round;stroke-linejoin:round;stroke-miterlimit:4;stroke-dasharray:none;stroke-opacity:1"
       d="m 68.096575,42.933295 -2.158484,0.502939 -8.201878,2.001766 -0.271289,0.214475 0.05522,15.781858 0.863514,0.287214 2.589939,0.722722 7.014921,1.957434 0.05397,-0.0086 c 0.02968,-0.0048 0.224005,-0.05695 0.431761,-0.115197 l 0.377748,-0.105829 7.98614,-2.24215 1.564702,-0.473907 V 45.53228 l -1.13325,-0.328736 z m -1.007131,1.612151 h 0.198871 l -0.05522,18.403638 -0.215727,-0.03937 c -0.118716,-0.02161 -0.628727,-0.158325 -1.133254,-0.304073 L 64.966892,62.340581 60.326183,61.06435 58.653466,60.572963 V 46.600284 l 0.485768,-0.105205 z m 1.600605,0 h 0.13018 l 5.427435,1.304644 3.075699,0.777668 -0.0029,13.728265 -0.170146,0.267553 -2.260571,0.638117 c -1.243354,0.350968 -3.086263,0.868325 -4.095314,1.149796 l -1.834745,0.511989 -0.269734,0.09959 z" />
    <path
       style="fill:#375a6e;fill-opacity:1;stroke:#000000;stroke-width:0;stroke-linecap:round;stroke-linejoin:round;stroke-miterlimit:4;stroke-dasharray:none;stroke-opacity:1"
       d="m 48.293017,62.910723 v -0.962326 l -0.272644,-2.361073 c -0.149956,-1.29859 -0.416491,-3.696592 -0.592311,-5.328903 l -0.319669,-2.967819 -0.06099,-0.431686 c -0.110769,-0.783989 -0.173418,-1.025254 -0.266267,-1.025254 h -0.09172 l -2.006099,2.32031 -3.666597,4.208909 -0.624708,0.690114 c -0.620692,0.685678 -0.763656,1.059621 -0.489822,1.281264 l 0.134906,0.109185 2.1129,1.190222 c 1.162092,0.654616 3.019685,1.65976 4.127971,2.23364 l 2.01508,1.043417"
       id="path882" />
    <path
       style="fill:#375a6e;fill-opacity:1;stroke:#000000;stroke-width:0;stroke-linecap:round;stroke-linejoin:round;stroke-miterlimit:4;stroke-dasharray:none;stroke-opacity:1"
       d="m 49.238958,62.622289 1.479702,-1.45692 c 0.813831,-0.801326 1.872299,-1.942584 2.352141,-2.536145 l 0.872447,-1.079213 0.300094,-0.472707 c 0.27298,-0.429985 0.28683,-0.498274 0.153211,-0.755444 l -0.146891,-0.282739 -5.686844,-5.615136 -0.474724,-0.370908 c -0.474723,-0.370908 -0.474723,-0.370908 -0.413666,0.37934 l 0.06108,0.750258 1.075967,8.417836 0.266401,2.590103 0.161106,0.431675"
       id="path884" />
    <path
       style="fill:#375a6e;fill-opacity:1;stroke:#000000;stroke-width:0;stroke-linecap:round;stroke-linejoin:round;stroke-miterlimit:4;stroke-dasharray:none;stroke-opacity:1"
       d="m 83.346737,59.100605 0.421648,-0.471381 2.751917,-3.088433 -0.107152,-0.107142 -2.77607,-0.734113 -0.566583,-0.156822 C 82.503914,54.38588 82.503914,54.38588 82.503914,54.9054 v 0.519508 l 0.340735,4.066656 0.04023,0.04025 c 0.02206,0.02208 0.229936,-0.171912 0.461852,-0.431176"
       id="path886" />
    <path
       style="fill:#375a6e;fill-opacity:1;stroke:#000000;stroke-width:0;stroke-linecap:round;stroke-linejoin:round;stroke-miterlimit:4;stroke-dasharray:none;stroke-opacity:1"
       d="M 87.021303,54.798024 87.508695,54.0156 c 0.268074,-0.430331 0.781824,-1.292223 1.141676,-1.915317 l 0.654274,-1.132894 -0.18615,-0.06204 -6.1289,2.179298 -0.242835,0.157697 c -0.411234,0.267073 -0.309052,0.545374 0.269817,0.734795 l 0.51262,0.167744 3.328527,0.653145 h 0.163579"
       id="path888" />
    <path
       style="fill:#36566c;fill-opacity:1;stroke:#000000;stroke-width:0;stroke-linecap:round;stroke-linejoin:round;stroke-miterlimit:4;stroke-dasharray:none;stroke-opacity:1"
       d="M 94.537136,55.045638 94.105451,54.550082 90.86782,51.713499 90.409203,51.349113 C 90.15696,51.148704 89.927935,51.007364 89.900286,51.035024 l -0.05024,0.05032 -0.416635,0.750172 c -0.22915,0.412592 -0.697941,1.250289 -1.041743,1.86156 l -0.625119,1.111389 0.102311,0.102343 6.668278,0.134858"
       id="path890" />
    <path
       style="fill:#375a6e;fill-opacity:1;stroke:#000000;stroke-width:0;stroke-linecap:round;stroke-linejoin:round;stroke-miterlimit:4;stroke-dasharray:none;stroke-opacity:1"
       d="m 41.547965,54.328381 1.634344,-1.897885 -0.353782,-1.595197 c -0.194588,-0.877365 -0.50297,-2.420794 -0.685303,-3.429853 l -0.3315,-1.834656 -0.113766,-0.572442 c -0.09085,-0.457272 -0.142627,-0.54849 -0.257199,-0.453403 l -0.143435,0.119036 -1.19998,1.784971 -0.219003,0.198189 c -0.12045,0.109007 -0.219002,0.32872 -0.219002,0.488254 v 0.290064 l 1.201795,4.728513 0.542378,1.938925 0.144453,0.235484"
       id="path892" />
    <path
       style="fill:#375a6e;fill-opacity:1;stroke:#000000;stroke-width:0;stroke-linecap:round;stroke-linejoin:round;stroke-miterlimit:4;stroke-dasharray:none;stroke-opacity:1"
       d="m 39.510258,46.164353 0.529805,-0.890347 c 0.291391,-0.48969 0.697019,-1.216116 0.901404,-1.614279 0.371599,-0.723932 0.371599,-0.723932 0.252004,-1.569601 -0.06579,-0.46512 -0.174707,-0.989226 -0.242073,-1.164684 -0.122467,-0.319014 -0.122467,-0.319014 -0.337455,-0.04922 l -0.214989,0.269803 -0.72055,0.978523 c -0.396303,0.538186 -0.951224,1.247607 -1.233175,1.576488 -0.281941,0.328883 -0.512623,0.643868 -0.512623,0.69997 0,0.26487 1.238591,1.76334 1.457527,1.76334 h 0.120125"
       id="path894" />
    <path
       style="fill:#375a6e;fill-opacity:1;stroke:#000000;stroke-width:0;stroke-linecap:round;stroke-linejoin:round;stroke-miterlimit:4;stroke-dasharray:none;stroke-opacity:1"
       d="m 55.6802,43.80883 c -0.05637,-0.04904 -0.351652,-0.267454 -0.656153,-0.48533 -0.484703,-0.346821 -0.570596,-0.375702 -0.689885,-0.231968 -0.170269,0.205159 -0.189372,0.1895 0.641574,0.525891 0.737196,0.298436 0.868528,0.334118 0.704464,0.191407"
       id="path896" />
    <path
       style="fill:#375a6e;fill-opacity:1;stroke:#000000;stroke-width:0;stroke-linecap:round;stroke-linejoin:round;stroke-miterlimit:4;stroke-dasharray:none;stroke-opacity:1"
       d="m 79.751964,44.060105 0.941551,-0.358397 c 0.941552,-0.358394 0.941552,-0.358394 0.664365,-0.596815 -0.277187,-0.238425 -0.277187,-0.238425 -0.769323,0.196407 -0.270684,0.239158 -0.569654,0.507727 -0.664373,0.596817 l -0.17222,0.161988"
       id="path898" />
    <path
       style="fill:#375a6e;fill-opacity:1;stroke:#000000;stroke-width:0;stroke-linecap:round;stroke-linejoin:round;stroke-miterlimit:4;stroke-dasharray:none;stroke-opacity:1"
       d="m 93.297925,52.554683 0.711165,-1.495406 c 0.391147,-0.822485 1.040598,-2.223882 1.44325,-3.114227 l 0.732099,-1.618815 2.307819,-4.94415 0.381374,-0.819513 c 0.209768,-0.450733 0.446334,-1.000196 0.525697,-1.221031 0.137197,-0.381739 0.131,-0.411989 -0.12582,-0.614002 -0.346945,-0.272901 -1.151018,-0.580535 -1.39187,-0.532527 l -0.186431,0.03715 -0.749808,1.618813 c -0.744132,1.606609 -1.619909,3.555678 -3.321694,7.392585 l -0.885535,1.996541 -0.864853,1.897328 0.05262,0.137133 c 0.02892,0.07539 0.349484,0.394304 0.712303,0.708623 l 0.659677,0.571498"
       id="path900" />
    <path
       style="fill:#a7c1d3;fill-opacity:1;stroke:#000000;stroke-width:0;stroke-linecap:round;stroke-linejoin:round;stroke-miterlimit:4;stroke-dasharray:none;stroke-opacity:1"
       d="m 55.685597,61.567654 0.485644,-0.09354 V 45.453797 l -1.888616,-0.690575 -10.576243,-3.910205 -1.817812,-0.623173 -0.04485,0.04483 c -0.02468,0.02466 0.0096,0.306824 0.07607,0.627036 l 0.120863,0.582208 5.119216,1.909937 3.453464,1.276271 0.863371,0.314089 c 0.474847,0.172749 1.446144,0.526482 2.158417,0.786072 l 1.295056,0.471981 0.107917,9.049195 0.350738,0.425404 c 0.479237,0.581218 0.479496,1.116124 9.48e-4,1.838673 -0.330598,0.499109 -0.352035,0.592033 -0.38957,1.688611 -0.03966,1.16042 -0.03966,1.16042 -0.391981,1.226509 -0.22487,0.04216 -0.541128,0.257833 -0.874444,0.596239 l -0.522182,0.530142 2.474069,-0.02939"
       id="path902" />
    <path
       style="fill:#a7c1d3;fill-opacity:1;stroke:#000000;stroke-width:0;stroke-linecap:round;stroke-linejoin:round;stroke-miterlimit:4;stroke-dasharray:none;stroke-opacity:1"
       d="m 39.533173,61.183848 c -0.07617,-0.09919 -0.24893,-0.317642 -0.383893,-0.485433 -0.134963,-0.167781 -0.245387,-0.39659 -0.245387,-0.508454 0,-0.144664 -0.116876,-0.233362 -0.404696,-0.307115 L 38.094491,59.779137 33.561814,58.874168 33.427389,58.737141 33.25369,55.76932 c -0.09557,-1.632309 -0.25035,-4.449041 -0.344033,-6.259418 -0.09364,-1.810374 -0.234379,-4.457133 -0.312656,-5.881689 l -0.14232,-2.590102 0.0751,-0.0832 3.366562,0.980973 0.0536,-0.139757 c 0.02949,-0.07687 0.03842,-0.351189 0.01988,-0.609606 -0.03784,-0.525616 0.219503,-0.415051 -3.371344,-1.448695 l -1.287065,-0.370487 -0.107486,0.107486 0.585646,11.492013 0.32592,6.043576 0.166476,2.74924 0.09927,0.09927 4.418173,0.881398 2.482176,0.539055 0.19503,0.04246 c 0.166917,0.03631 0.175061,0.01643 0.05647,-0.13794"
       id="path904" />
    <path
       style="fill:#375a6e;fill-opacity:1;stroke:#000000;stroke-width:0;stroke-linecap:round;stroke-linejoin:round;stroke-miterlimit:4;stroke-dasharray:none;stroke-opacity:1"
       d="m 78.888604,43.284931 c 0.474848,-0.326776 1.045473,-0.769446 1.268067,-0.983718 0.222585,-0.21427 0.404705,-0.453954 0.404705,-0.532635 0,-0.22513 -0.617206,-1.391226 -1.326529,-2.50627 l -0.649093,-1.020355 -2.138546,-3.89494 -1.335846,-2.318593 -0.06713,-8.12e-4 c -0.03688,-4.65e-4 -0.09999,0.205545 -0.140111,0.457809 l -0.07299,0.458665 -0.944451,4.316836 -0.234841,1.295052 c -0.129161,0.712279 -0.260821,1.956177 -0.292573,2.764219 l -0.05773,1.469169 0.838534,0.150018 3.345556,0.823141 0.269801,0.05829 c 0.205921,0.0445 0.474224,-0.08238 1.133172,-0.535839"
       id="path906" />
    <path
       style="fill:#375a6e;fill-opacity:1;stroke:#000000;stroke-width:0;stroke-linecap:round;stroke-linejoin:round;stroke-miterlimit:4;stroke-dasharray:none;stroke-opacity:1"
       d="m 37.889337,43.227027 c 0.119252,-0.135487 0.430534,-0.537727 0.691729,-0.893867 0.261205,-0.356138 0.729762,-0.948963 1.041228,-1.317384 0.701591,-0.829882 0.900415,-1.206419 0.900415,-1.705213 0,-0.51963 -0.206343,-1.313892 -0.378457,-1.456726 l -0.138623,-0.115054 -0.901605,0.843512 c -0.495892,0.463931 -1.160439,1.056206 -1.476794,1.316166 -0.575177,0.472655 -0.575177,0.472655 -0.505621,1.129915 0.110846,1.047485 0.279012,1.926036 0.420247,2.195595 0.13067,0.249401 0.13067,0.249401 0.347481,0.0031"
       id="path908" />
    <path
       style="fill:#375a6e;fill-opacity:1;stroke:#000000;stroke-width:0;stroke-linecap:round;stroke-linejoin:round;stroke-miterlimit:4;stroke-dasharray:none;stroke-opacity:1"
       d="m 58.364599,43.789231 0.304724,-0.09264 3.683021,-0.813143 -0.0682,-1.030588 c -0.03746,-0.566824 -0.16491,-1.621831 -0.283161,-2.344462 l -0.214989,-1.313877 -1.082315,-5.394124 -0.177232,-0.479091 -0.870095,1.606419 c -0.478545,0.883532 -1.137551,2.140632 -1.46445,2.793553 -0.682278,1.362721 -1.353135,2.539751 -2.37912,4.174187 l -0.720781,1.148223 v 0.190443 l 2.7451,1.609928 0.111364,0.01891 c 0.06128,0.01044 0.248489,-0.02277 0.416097,-0.07374"
       id="path910" />
    <path
       style="fill:#a7c1d3;fill-opacity:1;stroke:#000000;stroke-width:0;stroke-linecap:round;stroke-linejoin:round;stroke-miterlimit:4;stroke-dasharray:none;stroke-opacity:1"
       d="m 96.695555,61.251405 6.846115,-1.423593 0.11366,-0.874828 0.32721,-6.799012 0.10849,-2.212385 c 0.0996,-2.031681 0.20671,-4.100314 0.38862,-7.507881 0.0695,-1.302425 0.0695,-1.302425 -0.47779,-1.537873 -0.30101,-0.129495 -0.56802,-0.235446 -0.59333,-0.235446 h -0.046 l -0.14823,3.939113 -0.20977,3.723271 c -0.11539,2.047802 -0.2826,5.180206 -0.3716,6.960896 l -0.16181,3.237631 -0.002,0.250976 -1.16015,0.274498 c -0.63809,0.150983 -1.835806,0.39804 -2.661631,0.549024 l -1.501477,0.274517 h -0.03637 c -0.02004,0 -0.03637,0.0899 -0.03637,0.199765 0,0.109875 -0.120044,0.425538 -0.266749,0.701486 -0.146733,0.275947 -0.231723,0.496794 -0.188876,0.490781 l 0.07789,-0.01095"
       id="path912" />
    <path
       style="fill:#a7c1d3;fill-opacity:1;stroke:#000000;stroke-width:0;stroke-linecap:round;stroke-linejoin:round;stroke-miterlimit:4;stroke-dasharray:none;stroke-opacity:1"
       d="m 82.636983,61.597044 -0.390277,-0.431993 c -0.21466,-0.237596 -0.390284,-0.474214 -0.390284,-0.525809 0,-0.05158 -0.194607,-0.124936 -0.432462,-0.16297 l -0.432455,-0.06915 0.05551,-14.153883 3.021792,-1.139892 2.482175,-0.9206 c 1.365201,-0.50633 3.793423,-1.399846 5.39605,-1.985592 l 2.913874,-1.064993 0.348191,-0.699552 c 0.191503,-0.384752 0.349342,-0.735263 0.350737,-0.778914 6.77e-4,-0.04365 -0.252419,0.02255 -0.564033,0.147139 l -0.56658,0.226506 -4.85645,1.783499 -9.173273,3.395035 -0.59357,0.214149 v 16.036009 l 0.341412,0.131015 h 2.489651"
       id="path914" />
    <path
       style="fill:#375a6e;fill-opacity:1;stroke:#000000;stroke-width:0;stroke-linecap:round;stroke-linejoin:round;stroke-miterlimit:4;stroke-dasharray:none;stroke-opacity:1"
       d="m 95.085126,53.934662 1.867453,-4.047033 2.943271,-6.367337 1.7101,-3.687695 v -0.06955 c 0,-0.07728 -0.68395,-0.439221 -1.03417,-0.547282 l -0.22477,-0.06935 -1.529512,3.18675 -0.686041,1.510894 -1.72613,3.777233 -0.709324,1.510883 -1.75244,3.693779 v 0.153778 c 0,0.154921 0.879663,0.954931 1.050011,0.954931 h 0.09155"
       id="path916" />
    <path
       style="fill:#375a6e;fill-opacity:1;stroke:#000000;stroke-width:0;stroke-linecap:round;stroke-linejoin:round;stroke-miterlimit:4;stroke-dasharray:none;stroke-opacity:1"
       d="m 53.28774,42.109002 c 0.504362,-0.315487 0.617167,-0.439542 0.617167,-0.678768 V 41.13751 L 53.484113,39.738638 C 53.068679,38.357584 52.876674,37.466406 52.334105,34.400974 L 52.057129,32.836122 51.854407,32.63107 v 9.627017 l 0.339866,0.118478 c 0.450548,0.157064 0.391509,0.171511 1.093467,-0.267563"
       id="path918" />
    <path
       style="fill:#375a6e;fill-opacity:1;stroke:#000000;stroke-width:0;stroke-linecap:round;stroke-linejoin:round;stroke-miterlimit:4;stroke-dasharray:none;stroke-opacity:1"
       d="m 36.730677,39.79702 3.090546,-2.765712 -0.01277,-0.617452 c -0.0068,-0.339601 -0.03409,-0.638828 -0.06023,-0.664954 l -0.04754,-0.04751 -2.577492,1.268235 -0.459941,0.136106 c -0.672116,0.198893 -0.698068,0.265147 -0.509291,1.300106 0.181277,0.993855 0.316614,1.391171 0.473878,1.391171 h 0.102838"
       id="path920" />
    <path
       style="fill:#375a6e;fill-opacity:1;stroke:#000000;stroke-width:0;stroke-linecap:round;stroke-linejoin:round;stroke-miterlimit:4;stroke-dasharray:none;stroke-opacity:1"
       d="m 83.610131,42.462728 0.296788,-0.117272 v -2.76771 c 0,-1.522239 -0.03195,-3.795754 -0.07122,-5.05225 l -0.07122,-2.28454 -0.07477,0.07472 -0.647357,4.148856 -0.214562,0.991743 c -0.118018,0.54546 -0.415914,1.704064 -0.661988,2.574679 l -0.447432,1.582934 0.0607,0.158148 c 0.07155,0.186473 1.169784,0.836094 1.385337,0.819456 0.08187,-0.0064 0.282296,-0.06426 0.445531,-0.128754"
       id="path922" />
    <path
       style="fill:#375a6e;fill-opacity:1;stroke:#000000;stroke-width:0;stroke-linecap:round;stroke-linejoin:round;stroke-miterlimit:4;stroke-dasharray:none;stroke-opacity:1"
       d="m 106.13864,40.527589 c 0.12334,-0.132392 0.30021,-0.50202 0.39307,-0.82139 0.21298,-0.732592 0.14956,-0.807232 -0.93901,-1.105317 -1.03993,-0.28476 -3.04833,-1.272044 -3.84301,-1.889124 -0.66456,-0.516048 -0.68661,-0.524687 -1.762558,-0.690496 -0.868821,-0.133892 -2.492069,-0.732301 -3.526606,-1.300084 -1.000838,-0.549292 -1.340001,-0.557795 -1.659052,-0.04159 -0.131387,0.212598 -0.262265,0.594006 -0.290844,0.847578 -0.04592,0.407272 -0.02397,0.468344 0.187704,0.523712 0.13182,0.03447 0.359047,0.01729 0.504933,-0.03817 0.145879,-0.05547 0.391966,-0.100848 0.546852,-0.100848 h 0.281594 l 2.606411,1.107651 0.325673,0.194926 c 0.179117,0.107205 0.49168,0.416481 0.694567,0.687268 0.366566,0.489248 0.372996,0.492349 1.023336,0.494245 0.65332,0.002 1.82094,0.316311 3.46039,0.931786 0.88456,0.332081 1.13318,0.51988 1.13318,0.85602 0,0.274051 0.2598,0.584547 0.48914,0.584547 0.0825,0 0.25089,-0.108324 0.37423,-0.240719"
       id="path924" />
    <path
       id="path5437"
       style="fill:#375a6e;fill-opacity:1;stroke:#000000;stroke-width:0;stroke-linecap:round;stroke-linejoin:round;stroke-miterlimit:4;stroke-dasharray:none;stroke-opacity:1"
       d="m 67.610489,22.529769 -1.213791,1.474476 c -0.667668,0.811015 -1.93371,2.30439 -2.813148,3.318586 l -1.59904,1.844109 -0.190756,0.343723 2.278368,0.07087 c 2.345821,0.07305 3.976959,0.06602 7.664907,-0.03341 l 2.129451,-0.05745 -1.467295,-1.673029 c -0.807011,-0.920028 -2.167638,-2.486079 -3.023881,-3.480302 l -1.556895,-1.807583 z" />
    <path
       style="fill:#375a6e;fill-opacity:1;stroke:#000000;stroke-width:0;stroke-linecap:round;stroke-linejoin:round;stroke-miterlimit:4;stroke-dasharray:none;stroke-opacity:1"
       d="m 102.24039,35.51974 c 0.10587,-0.232379 0.10426,-0.309245 -0.009,-0.387971 -0.37036,-0.25893 -1.25081,-0.620877 -1.51261,-0.621819 -0.17998,-7.45e-4 -0.33607,0.07946 -0.40471,0.207691 -0.17836,0.333288 -0.13556,0.410283 0.27039,0.486439 0.3041,0.05705 1.07903,0.359928 1.46094,0.571 0.0343,0.01896 0.12176,-0.09595 0.19438,-0.25534"
       id="path928" />
    <path
       id="path930"
       style="fill:#375a6e;fill-opacity:1;stroke:#000000;stroke-width:0;stroke-linecap:round;stroke-linejoin:round;stroke-miterlimit:4;stroke-dasharray:none;stroke-opacity:1"
       d="m 74.08626,30.677631 -12.572853,0.07305 -0.06397,0.06306 0.318439,1.914352 0.433011,2.104476 c 0.238154,1.157453 0.576541,2.954491 0.752063,3.993231 l 0.319053,1.888438 0.269734,1.679588 0.06493,0.03278 c 0.03582,0.01795 0.283727,-0.01173 0.550704,-0.06586 h 3.17e-4 l 0.485451,-0.09865 3.021692,-0.75394 0.648114,-0.0059 3.447519,0.884748 h 0.186692 c 0.128144,0 0.202628,-0.109732 0.237578,-0.350589 l 0.05091,-0.350591 0.338108,-2.805969 1.09047,-5.396214 0.418968,-2.589932 z m -8.423531,2.656428 c 0.314644,-0.0039 0.620059,0.0528 0.866645,0.176701 0.823397,0.413684 1.120975,1.563769 0.663098,2.563082 l -0.19793,0.431448 -1.664293,1.834745 1.03242,0.03091 c 1.032362,0.03089 1.03241,0.03098 1.03241,0.620634 v 0.589727 h -3.805604 l 0.05772,-0.431448 c 0.06637,-0.494589 0.529566,-1.185354 1.592489,-2.37452 l 0.723654,-0.809511 0.122064,-0.235703 c 0.06723,-0.129649 0.122382,-0.407855 0.122382,-0.618137 0,-0.753794 -0.89934,-0.944032 -1.2753,-0.269733 -0.171576,0.30773 -0.208361,0.322039 -0.667151,0.255997 -0.267101,-0.03846 -0.504813,-0.08866 -0.52823,-0.111453 -0.08011,-0.07799 0.31963,-0.990709 0.508877,-1.161972 0.342661,-0.31011 0.89232,-0.484409 1.416718,-0.490764 z m 4.371301,0.0066 c 0.504969,0.0049 1.012001,0.245899 1.368013,0.736457 0.532503,0.733731 0.69508,2.882441 0.311878,4.1231 -0.300093,0.971582 -0.787121,1.38113 -1.642432,1.38113 -0.257095,0 -0.623268,-0.085 -0.813879,-0.188875 -0.856264,-0.466637 -1.160602,-1.388282 -1.087675,-3.293611 0.04015,-1.049477 0.08904,-1.324944 0.313751,-1.76731 0.334564,-0.658634 0.940889,-0.996811 1.550344,-0.990891 z m 0.02844,1.068315 c -0.190507,0.0024 -0.386938,0.130055 -0.503566,0.369633 l -0.157341,0.323742 -0.0058,2.805969 0.135175,0.240386 c 0.07424,0.132191 0.231287,0.291941 0.349029,0.354962 0.173679,0.09294 0.262722,0.06571 0.472351,-0.143921 0.20838,-0.208386 0.2737,-0.419281 0.336543,-1.089857 0.09586,-1.022882 -0.01709,-2.298564 -0.232901,-2.632703 -0.100869,-0.15614 -0.245501,-0.230084 -0.39367,-0.228211 z" />
    <path
       style="fill:#375a6e;fill-opacity:1;stroke:#000000;stroke-width:0;stroke-linecap:round;stroke-linejoin:round;stroke-miterlimit:4;stroke-dasharray:none;stroke-opacity:1"
       d="m 102.84243,34.267551 c 0.081,-0.192545 0.12142,-0.391817 0.0899,-0.442824 -0.0852,-0.137807 -1.35104,-0.718621 -1.56642,-0.718719 -0.16765,-7.6e-5 -0.51541,0.493758 -0.51541,0.731895 0,0.05235 0.15784,0.145654 0.35075,0.207355 0.19291,0.0617 0.60797,0.215723 0.92236,0.342278 0.57162,0.2301 0.57162,0.2301 0.71882,-0.119985"
       id="path932" />
    <path
       style="fill:#375a6e;fill-opacity:1;stroke:#000000;stroke-width:0;stroke-linecap:round;stroke-linejoin:round;stroke-miterlimit:4;stroke-dasharray:none;stroke-opacity:1"
       d="m 35.720231,36.770551 1.025245,-0.360134 c 0.563892,-0.198073 1.413769,-0.555857 1.888616,-0.795075 1.26268,-0.636106 1.371019,-0.799155 1.20123,-1.807933 -0.09085,-0.539603 -0.09085,-0.539603 -0.484145,-0.10032 -0.549321,0.613524 -1.185632,1.081281 -1.922242,1.413065 -0.514294,0.231645 -0.841808,0.293069 -1.789651,0.335642 l -1.16014,0.05211 v 0.04357 c 0,0.02397 0.06992,0.210918 0.155381,0.415459 0.141647,0.338999 0.713713,0.810302 0.97778,0.805557 l 0.107926,-0.002"
       id="path936" />
    <path
       style="fill:#375a6e;fill-opacity:1;stroke:#000000;stroke-width:0;stroke-linecap:round;stroke-linejoin:round;stroke-miterlimit:4;stroke-dasharray:none;stroke-opacity:1"
       d="m 103.47778,32.933686 c 0.0982,-0.206079 0.17867,-0.424159 0.17867,-0.48462 0,-0.06046 -0.30353,-0.248802 -0.67451,-0.418535 -1.07201,-0.490482 -1.09351,-0.49139 -1.30165,-0.05492 -0.24924,0.522652 -0.23882,0.555659 0.22245,0.704996 0.22258,0.07206 0.62782,0.242792 0.90052,0.379399 0.49583,0.248374 0.49583,0.248374 0.67452,-0.126317"
       id="path938" />
    <path
       style="fill:#375a6e;fill-opacity:1;stroke:#000000;stroke-width:0;stroke-linecap:round;stroke-linejoin:round;stroke-miterlimit:4;stroke-dasharray:none;stroke-opacity:1"
       d="m 104.13932,31.492468 c 0.0906,-0.175121 0.16466,-0.383984 0.16466,-0.464139 0,-0.133821 -0.50873,-0.429478 -1.36607,-0.793913 -0.33995,-0.14451 -0.34134,-0.143744 -0.56602,0.310344 -0.22521,0.455212 -0.22521,0.455212 0.65284,0.860662 l 0.87808,0.405451 h 0.0359 c 0.0198,0 0.11003,-0.143283 0.20058,-0.318405"
       id="path940" />
    <path
       id="path942"
       style="fill:#375a6e;fill-opacity:1;stroke:#000000;stroke-width:0;stroke-linecap:round;stroke-linejoin:round;stroke-miterlimit:4;stroke-dasharray:none;stroke-opacity:1"
       d="m 35.664035,26.252954 c -1.064182,0 -1.180531,0.02226 -1.851917,0.352775 -2.638711,1.299033 -3.252268,4.745124 -1.208798,6.788584 0.727092,0.727091 1.714976,1.147838 2.788167,1.187884 0.493654,0.01842 1.08536,-0.02844 1.371143,-0.108955 0.276467,-0.07788 0.781089,-0.308204 1.121704,-0.511679 1.214676,-0.725643 1.990838,-2.111441 1.990838,-3.554914 0,-1.718819 -0.85176,-3.088613 -2.374212,-3.817778 -0.647835,-0.310274 -0.788331,-0.335917 -1.836925,-0.335917 z m -0.05187,0.871012 c 0.916022,-0.0037 1.537302,0.24924 2.268062,0.922834 0.758317,0.698993 1.059438,1.370216 1.059265,2.361098 -1.25e-4,0.691441 -0.04889,0.905218 -0.334362,1.466359 -0.586809,1.153359 -1.528793,1.779396 -2.776931,1.845358 -0.549455,0.02905 -0.911739,-0.01597 -1.328057,-0.164525 -0.797599,-0.284605 -1.338248,-0.783979 -1.829751,-1.6902 -0.252463,-0.465474 -0.293186,-0.665684 -0.294397,-1.456992 -9.48e-4,-0.738943 0.04659,-1.014451 0.244762,-1.416721 0.575043,-1.167158 1.688285,-1.862077 2.991409,-1.867211 z m -0.409595,0.867888 c -0.09802,0.0014 -0.203127,0.01619 -0.314068,0.04683 -0.834107,0.230307 -1.594882,1.109785 -1.595918,1.844734 -9.49e-4,0.683406 0.551406,1.084659 1.09142,0.792965 0.15543,-0.08396 0.355867,-0.312209 0.445496,-0.507311 0.08961,-0.195103 0.18461,-0.426228 0.211042,-0.513552 0.02641,-0.08733 0.238672,-0.257498 0.471717,-0.378065 0.816347,-0.422327 0.4884,-1.297116 -0.309689,-1.285601 z" />
    <path
       style="fill:#375a6e;fill-opacity:1;stroke:#000000;stroke-width:0;stroke-linecap:round;stroke-linejoin:round;stroke-miterlimit:4;stroke-dasharray:none;stroke-opacity:1"
       d="m 80.958802,40.120783 0.706548,-2.301096 0.915625,-4.443961 0.393666,-2.10142 -0.09295,-0.08811 -4.42476,-0.453124 -0.971297,-0.105593 c -0.534205,-0.05807 -1.201959,-0.132912 -1.48391,-0.166303 -0.393527,-0.04661 -0.512624,-0.02607 -0.512624,0.08842 v 0.149131 l 0.6096,0.960775 c 1.347431,2.123686 2.265604,3.729818 2.921268,5.110129 0.379176,0.798231 0.94181,1.878197 1.250317,2.399923 l 0.560904,0.948591 0.127625,0.0027"
       id="path944" />
    <path
       style="fill:#375a6e;fill-opacity:1;stroke:#000000;stroke-width:0;stroke-linecap:round;stroke-linejoin:round;stroke-miterlimit:4;stroke-dasharray:none;stroke-opacity:1"
       d="m 54.959303,40.455704 0.758786,-1.36017 2.576628,-5.180204 1.869599,-3.279688 v -0.0922 c 0,-0.09723 -0.270435,-0.08362 -1.672774,0.08411 l -0.86337,0.103269 -4.424751,0.436653 -0.353293,0.06439 c -0.339357,0.06185 -0.350576,0.07985 -0.284333,0.456603 l 0.06896,0.392215 0.524571,2.050497 c 0.28851,1.127773 0.789636,2.990251 1.113597,4.138841 l 0.589037,2.088343 0.09734,0.09735"
       id="path946" />
    <path
       style="fill:#375a6e;fill-opacity:1;stroke:#000000;stroke-width:0;stroke-linecap:round;stroke-linejoin:round;stroke-miterlimit:4;stroke-dasharray:none;stroke-opacity:1"
       d="m 104.8931,29.810913 c 0.10274,-0.268986 0.16026,-0.558179 0.12785,-0.64265 -0.0755,-0.196585 -0.77823,-0.556236 -1.26561,-0.64767 -0.36154,-0.06783 -0.38632,-0.05141 -0.61552,0.407515 -0.13135,0.263002 -0.23881,0.526838 -0.23881,0.586302 v 0.108118 l 1.61388,0.677452 h 0.0958 c 0.0526,0 0.17977,-0.220081 0.2825,-0.489067"
       id="path948" />
    <path
       style="fill:#375a6e;fill-opacity:1;stroke:#000000;stroke-width:0;stroke-linecap:round;stroke-linejoin:round;stroke-miterlimit:4;stroke-dasharray:none;stroke-opacity:1"
       d="m 105.81604,28.222501 c 0.1227,-0.201231 0.21403,-0.542727 0.21426,-0.801125 5e-4,-0.577826 -0.39402,-1.077456 -0.93029,-1.178059 -0.45878,-0.08607 -1.14522,0.191407 -1.38723,0.560755 -0.18798,0.286895 -0.2232,1.121648 -0.0473,1.121648 0.0643,0 0.48078,0.145693 0.92549,0.323762 l 0.80856,0.323763 h 0.10134 c 0.0558,0 0.19759,-0.157835 0.3152,-0.350744"
       id="path956" />
    <path
       style="fill:#375a6e;fill-opacity:1;stroke:#000000;stroke-width:0;stroke-linecap:round;stroke-linejoin:round;stroke-miterlimit:4;stroke-dasharray:none;stroke-opacity:1"
       d="m 81.370779,29.888236 -0.323759,-0.195094 -4.316843,-2.230523 -1.18713,-0.653795 -5.827723,-3.447465 -1.064788,-0.638175 6.228146,6.362906 1.411396,0.181302 c 0.776257,0.09972 2.238941,0.324279 3.250395,0.499025 l 1.838998,0.317721 0.157533,-3.93e-4 c 0.08664,-2.21e-4 0.01181,-0.0882 -0.166225,-0.195497"
       id="path960" />
    <path
       style="fill:#375a6e;fill-opacity:1;stroke:#000000;stroke-width:0;stroke-linecap:round;stroke-linejoin:round;stroke-miterlimit:4;stroke-dasharray:none;stroke-opacity:1"
       d="m 54.066791,30.175525 1.510889,-0.258833 c 0.830985,-0.142357 2.329005,-0.382384 3.328932,-0.533395 1.818033,-0.274563 1.818033,-0.274563 2.643168,-1.162852 l 0.825135,-0.88829 2.796782,-2.913865 1.736875,-1.672775 h -0.152473 l -1.488212,0.880313 c -0.818518,0.484174 -1.876736,1.107465 -2.351583,1.385097 -0.474849,0.27763 -1.397576,0.821192 -2.050502,1.207916 -1.296852,0.768125 -3.531308,2.009328 -5.713294,3.173652 l -1.396462,0.745157 0.310745,0.03787"
       id="path964" />
  </g>
</svg>
